<svg width="25" height="41" viewBox="0 0 25 41" fill="none" xmlns="http://www.w3.org/2000/svg">
<path d="M12.5 40.9999C12.1 40.9999 11.7571 40.8857 11.4714 40.6571C11.1857 40.4285 10.9714 40.1285 10.8286 39.7571C10.2857 38.1571 9.6 36.6571 8.77143 35.2571C7.97143 33.8571 6.84286 32.2142 5.38571 30.3285C3.92857 28.4428 2.74286 26.6428 1.82857 24.9285C0.942857 23.2142 0.5 21.1428 0.5 18.7142C0.5 15.3714 1.65714 12.5428 3.97143 10.2285C6.31429 7.88566 9.15714 6.71423 12.5 6.71423C15.8429 6.71423 18.6714 7.88566 20.9857 10.2285C23.3286 12.5428 24.5 15.3714 24.5 18.7142C24.5 21.3142 24 23.4857 23 25.2285C22.0286 26.9428 20.9 28.6428 19.6143 30.3285C18.0714 32.3857 16.9 34.0999 16.1 35.4714C15.3286 36.8142 14.6857 38.2428 14.1714 39.7571C14.0286 40.1571 13.8 40.4714 13.4857 40.6999C13.2 40.8999 12.8714 40.9999 12.5 40.9999ZM12.5 22.9999C13.7 22.9999 14.7143 22.5857 15.5429 21.7571C16.3714 20.9285 16.7857 19.9142 16.7857 18.7142C16.7857 17.5142 16.3714 16.4999 15.5429 15.6714C14.7143 14.8428 13.7 14.4285 12.5 14.4285C11.3 14.4285 10.2857 14.8428 9.45714 15.6714C8.62857 16.4999 8.21429 17.5142 8.21429 18.7142C8.21429 19.9142 8.62857 20.9285 9.45714 21.7571C10.2857 22.5857 11.3 22.9999 12.5 22.9999Z" fill="#D85040"/>
<circle cx="12.4984" cy="18.8411" r="5.01599" fill="white"/>
</svg>
