<svg width="24" height="24" viewBox="0 0 24 24" fill="none" xmlns="http://www.w3.org/2000/svg">
<path d="M3.5 20.0002C2.95 20.0002 2.475 19.8086 2.075 19.4252C1.69167 19.0252 1.5 18.5502 1.5 18.0002V6.00024C1.5 5.45024 1.69167 4.98358 2.075 4.60024C2.475 4.20024 2.95 4.00024 3.5 4.00024H19.5C20.05 4.00024 20.5167 4.20024 20.9 4.60024C21.3 4.98358 21.5 5.45024 21.5 6.00024V18.0002C21.5 18.5502 21.3 19.0252 20.9 19.4252C20.5167 19.8086 20.05 20.0002 19.5 20.0002H3.5ZM11.5 13.0002L19.5 8.00024V6.00024L11.5 11.0002L3.5 6.00024V8.00024L11.5 13.0002Z" fill="#345995"/>
</svg>
