<svg width="24" height="24" viewBox="0 0 24 24" fill="none" xmlns="http://www.w3.org/2000/svg">
<path d="M12 22.0002C11.7667 22.0002 11.5667 21.9336 11.4 21.8002C11.2333 21.6669 11.1083 21.4919 11.025 21.2752C10.7083 20.3419 10.3083 19.4669 9.825 18.6502C9.35833 17.8336 8.7 16.8752 7.85 15.7752C7 14.6752 6.30833 13.6252 5.775 12.6252C5.25833 11.6252 5 10.4169 5 9.00024C5 7.05024 5.675 5.40024 7.025 4.05024C8.39167 2.68358 10.05 2.00024 12 2.00024C13.95 2.00024 15.6 2.68358 16.95 4.05024C18.3167 5.40024 19 7.05024 19 9.00024C19 10.5169 18.7083 11.7836 18.125 12.8002C17.5583 13.8002 16.9 14.7919 16.15 15.7752C15.25 16.9752 14.5667 17.9752 14.1 18.7752C13.65 19.5586 13.275 20.3919 12.975 21.2752C12.8917 21.5086 12.7583 21.6919 12.575 21.8252C12.4083 21.9419 12.2167 22.0002 12 22.0002ZM12 11.5002C12.7 11.5002 13.2917 11.2586 13.775 10.7752C14.2583 10.2919 14.5 9.70024 14.5 9.00024C14.5 8.30024 14.2583 7.70858 13.775 7.22524C13.2917 6.74191 12.7 6.50024 12 6.50024C11.3 6.50024 10.7083 6.74191 10.225 7.22524C9.74167 7.70858 9.5 8.30024 9.5 9.00024C9.5 9.70024 9.74167 10.2919 10.225 10.7752C10.7083 11.2586 11.3 11.5002 12 11.5002Z" fill="#888F91"/>
</svg>
