<svg width="270" height="123" viewBox="0 0 270 123" fill="none" xmlns="http://www.w3.org/2000/svg">
<path fill-rule="evenodd" clip-rule="evenodd" d="M81.1215 70.4643L81.4965 69.8927C85.7745 63.3711 88.2628 55.5741 88.2628 47.1807C88.2628 24.2784 69.6968 5.7124 46.7945 5.7124C39.2251 5.7124 32.1294 7.74048 26.021 11.2829C25.689 11.0514 25.3431 10.8402 24.9852 10.6505L22.0374 9.08816C21.5966 8.85456 21.136 8.74297 20.6857 8.73519C28.1271 3.67182 37.1152 0.712402 46.7945 0.712402C72.4582 0.712402 93.2628 21.517 93.2628 47.1807C93.2628 56.578 90.4733 65.3238 85.6772 72.6352L85.7233 72.6942L85.1049 73.4871C84.0495 75.0211 82.9043 76.4886 81.677 77.882L80.0089 80.0207C80.0105 79.9742 80.0113 79.9274 80.0113 79.8805L80.0114 72.1315V72.01C80.345 71.5645 80.6698 71.1121 80.9856 70.6531L81.0703 70.5299L81.1215 70.4643ZM70.6575 83.8805L46.7946 114.476L15.8556 74.8081L15.7637 74.6903L15.6649 74.5782C14.5682 73.3332 13.5452 72.0222 12.6026 70.652L12.5179 70.5287L12.4669 70.4634L12.0926 69.8928C7.81456 63.3712 5.32617 55.5742 5.32617 47.1807C5.32617 35.6482 10.0338 25.2153 17.6323 17.6987L17.6325 11.7388C17.6325 11.4473 17.6725 11.1694 17.7464 10.9085C7.12611 19.4247 0.326172 32.5086 0.326172 47.1807C0.326172 56.578 3.11567 65.3238 7.91181 72.6352L7.86583 72.6942L8.48326 73.4858C9.53918 75.0207 10.685 76.4891 11.913 77.8832L43.6241 118.541L46.7946 122.606L49.9651 118.541L77.1199 83.7249C76.7679 83.8262 76.3959 83.8805 76.0113 83.8805H74.2464H70.6575Z" fill="#2D504C"/>
<mask id="mask0_435_897" style="mask-type:alpha" maskUnits="userSpaceOnUse" x="0" y="0" width="94" height="123">
<path fill-rule="evenodd" clip-rule="evenodd" d="M85.6772 72.6352C90.4733 65.3238 93.2628 56.578 93.2628 47.1807C93.2628 21.517 72.4582 0.712402 46.7945 0.712402C21.1308 0.712402 0.326172 21.517 0.326172 47.1807C0.326172 56.578 3.11567 65.3238 7.91181 72.6352L7.86583 72.6942L8.48326 73.4858C9.53918 75.0207 10.685 76.4891 11.913 77.8832L46.7946 122.606L81.677 77.882C82.9043 76.4886 84.0495 75.0211 85.1049 73.4871L85.7233 72.6942L85.6772 72.6352Z" fill="black"/>
</mask>
<g mask="url(#mask0_435_897)">
<path fill-rule="evenodd" clip-rule="evenodd" d="M31.4839 18.2085C32.0846 18.7822 32.7712 19.438 33.6 20.2139C33.8584 20.4979 34.1306 20.7874 34.4081 21.0827C35.498 22.2424 36.6718 23.4912 37.4269 24.843C37.5901 25.1351 37.8649 25.3459 38.1974 25.383C39.7308 25.554 43.6949 25.9198 47.5005 26.2708C48.2294 26.3381 48.9524 26.4048 49.6514 26.4695C53.5082 26.8264 56.8969 29.0795 58.7573 32.4768L67.9599 49.2815C68.077 49.4954 68.2683 49.6592 68.4977 49.7419L75.6922 52.3366C76.077 52.4754 76.3385 52.8346 76.3523 53.2435L76.4163 55.1348C76.4354 55.7 75.9824 56.1686 75.4169 56.1686H73.3494C72.7971 56.1686 72.3494 56.6163 72.3494 57.1686V69.9334C72.3494 70.4857 72.7971 70.9334 73.3494 70.9334H75.9838C76.5229 70.9334 76.965 71.3608 76.9832 71.8996L77.2341 79.3173C77.2532 79.8825 76.8002 80.3511 76.2346 80.3511H62.9123C62.2965 80.3511 61.8291 79.7994 61.8814 79.1857C61.9191 78.743 61.9383 78.295 61.9383 77.8426C61.9383 76.9886 61.8698 76.1507 61.7379 75.334C60.5378 67.9018 54.0926 62.2259 46.3217 62.2259C43.1056 62.2259 40.1165 63.1981 37.6324 64.8646C36.8409 65.3956 36.1006 65.9971 35.4206 66.6601C34.5753 67.4843 33.823 68.4036 33.1811 69.4007H-14.8096V67.6601C-14.8096 67.1078 -14.3619 66.6601 -13.8096 66.6601H30.6324C31.1847 66.6601 31.6324 66.2124 31.6324 65.6601V64.9756C31.6324 64.4233 31.1847 63.9756 30.6324 63.9756H21.089C20.5367 63.9756 20.089 63.5279 20.089 62.9756V12.3594C20.089 11.6681 20.7759 11.1769 21.4261 11.4116C22.8063 11.9097 24.5529 12.6216 26.3037 13.8296C28.4489 15.3097 29.4956 16.3095 31.4839 18.2085ZM50.1993 30.1787C52.509 30.4874 54.5387 31.8893 55.6075 33.9601L62.3334 46.991C62.6769 47.6565 62.1963 48.4173 61.4503 48.35C57.5607 47.9991 49.451 46.8479 48.4137 46.6879C42.9817 45.8501 38.8962 45.0714 36.1852 44.4474C35.7356 44.3439 35.4206 43.942 35.4206 43.4806V33.0353V29.3962C35.4206 28.8087 35.9245 28.3475 36.5091 28.4066C39.5788 28.717 43.1251 29.2068 46.5619 29.6815C47.7976 29.8522 49.0192 30.021 50.1993 30.1787Z" fill="#2D504C"/>
<path fill-rule="evenodd" clip-rule="evenodd" d="M46.9486 73.5786C46.7498 73.5714 46.5497 73.578 46.3497 73.5988C45.3131 73.7069 44.3516 74.1897 43.6459 74.9567C42.9402 75.7237 42.539 76.722 42.5175 77.764C42.496 78.8061 42.8558 79.82 43.5292 80.6155C44.2027 81.4109 45.1435 81.933 46.1748 82.0837C46.3681 82.1119 46.5622 82.1267 46.7556 82.1284C46.7575 82.1285 46.759 82.13 46.759 82.1319C46.759 82.1338 46.7605 82.1353 46.7624 82.1353H55.1237C56.5247 82.1353 57.4742 83.5455 56.6765 84.6973C55.7978 85.9659 54.676 87.064 53.3624 87.921C50.9085 89.5221 47.9543 90.1719 45.055 89.7484C42.1557 89.3248 39.5108 87.857 37.6175 85.6207C35.7242 83.3845 34.7127 80.5338 34.7731 77.6044C34.8335 74.6749 35.9616 71.8683 37.9455 69.7121C39.9294 67.5558 42.6325 66.1982 45.5468 65.8945C48.4611 65.5908 51.386 66.3618 53.7719 68.0627C54.9158 68.8782 55.898 69.8805 56.6838 71.0177C57.4799 72.1697 56.5303 73.5786 55.1299 73.5786H46.9486Z" fill="#2D504C"/>
<rect x="7.02441" y="72.9294" width="34.449" height="9.85512" fill="#2D504C"/>
<path d="M75.0583 60.7595L76.8218 57.6485V61.659H73.5234L75.0583 60.7595Z" fill="#2D504C"/>
<path d="M75.0583 67.6935L76.8218 64.5826V68.5931H73.5234L75.0583 67.6935Z" fill="#2D504C"/>
</g>
<path d="M240.829 82.1055C236.884 82.1055 233.308 81.3657 230.102 79.8861C226.946 78.3571 224.208 76.335 221.89 73.8197C219.621 71.255 217.871 68.3944 216.638 65.2379C215.405 62.0321 214.788 58.7277 214.788 55.3246C214.788 51.8228 215.429 48.4937 216.712 45.3372C218.043 42.1807 219.868 39.3695 222.186 36.9035C224.553 34.3881 227.34 32.4153 230.546 30.985C233.752 29.5547 237.253 28.8396 241.051 28.8396C244.947 28.8396 248.474 29.6041 251.63 31.133C254.836 32.6126 257.573 34.6347 259.842 37.1994C262.16 39.764 263.936 42.6493 265.169 45.8551C266.402 49.0116 267.018 52.2421 267.018 55.5465C267.018 59.0483 266.377 62.3774 265.095 65.5339C263.812 68.6904 261.988 71.5263 259.62 74.0416C257.253 76.5076 254.466 78.4804 251.26 79.96C248.104 81.3903 244.627 82.1055 240.829 82.1055ZM227.143 55.4725C227.143 57.4947 227.439 59.4675 228.031 61.391C228.622 63.2651 229.486 64.942 230.62 66.4216C231.804 67.9012 233.259 69.0849 234.985 69.9727C236.711 70.8605 238.684 71.3043 240.903 71.3043C243.221 71.3043 245.243 70.8605 246.97 69.9727C248.696 69.0356 250.126 67.8026 251.26 66.2737C252.395 64.7447 253.233 63.0432 253.776 61.169C254.368 59.2455 254.664 57.2974 254.664 55.3246C254.664 53.3024 254.368 51.3543 253.776 49.4801C253.184 47.606 252.296 45.9291 251.112 44.4495C249.929 42.9205 248.474 41.7368 246.748 40.8984C245.021 40.06 243.073 39.6407 240.903 39.6407C238.585 39.6407 236.563 40.0846 234.837 40.9724C233.16 41.8601 231.73 43.0685 230.546 44.5974C229.412 46.077 228.548 47.7786 227.957 49.7021C227.414 51.5762 227.143 53.4997 227.143 55.4725Z" fill="#2D504C"/>
<path d="M177.687 29.1355L190.042 67.4573L202.249 29.1355H215.047L195.96 81.6616H184.049L164.814 29.1355H177.687Z" fill="#2D504C"/>
<path d="M147.887 81.6616V29.1355H160.02V81.6616H147.887Z" fill="#2D504C"/>
<path d="M101.794 81.6616V29.1355H124.21C126.725 29.1355 129.019 29.6534 131.09 30.6891C133.211 31.6755 135.036 33.0318 136.565 34.758C138.094 36.4349 139.277 38.3337 140.116 40.4545C140.954 42.5753 141.373 44.7454 141.373 46.9648C141.373 49.9733 140.658 52.8339 139.228 55.5465C137.847 58.2591 135.899 60.4785 133.384 62.2047C130.918 63.8816 127.983 64.7201 124.58 64.7201H113.927V81.6616H101.794ZM113.927 54.1409H123.84C124.777 54.1409 125.64 53.8696 126.429 53.3271C127.219 52.7846 127.86 51.9708 128.353 50.8857C128.846 49.8007 129.093 48.469 129.093 46.8908C129.093 45.2632 128.797 43.9316 128.205 42.8958C127.662 41.8108 126.947 41.0217 126.06 40.5285C125.221 40.0353 124.333 39.7887 123.396 39.7887H113.927V54.1409Z" fill="#2D504C"/>
</svg>
