<svg width="24" height="24" viewBox="0 0 24 24" fill="none" xmlns="http://www.w3.org/2000/svg">
<path d="M19.95 21.0002C17.8667 21.0002 15.8083 20.5461 13.775 19.6377C11.7417 18.7294 9.89167 17.4419 8.225 15.7752C6.55833 14.1086 5.27083 12.2586 4.3625 10.2252C3.45417 8.19191 3 6.13358 3 4.05024C3 3.75024 3.1 3.50024 3.3 3.30024C3.5 3.10024 3.75 3.00024 4.05 3.00024H8.1C8.33333 3.00024 8.54167 3.07941 8.725 3.23774C8.90833 3.39608 9.01667 3.58358 9.05 3.80024L9.7 7.30024C9.73333 7.56691 9.725 7.79191 9.675 7.97524C9.625 8.15858 9.53333 8.31691 9.4 8.45024L6.975 10.9002C7.30833 11.5169 7.70417 12.1127 8.1625 12.6877C8.62083 13.2627 9.125 13.8169 9.675 14.3502C10.1917 14.8669 10.7333 15.3461 11.3 15.7877C11.8667 16.2294 12.4667 16.6336 13.1 17.0002L15.45 14.6502C15.6 14.5002 15.7958 14.3877 16.0375 14.3127C16.2792 14.2377 16.5167 14.2169 16.75 14.2502L20.2 14.9502C20.4333 15.0169 20.625 15.1377 20.775 15.3127C20.925 15.4877 21 15.6836 21 15.9002V19.9502C21 20.2502 20.9 20.5002 20.7 20.7002C20.5 20.9002 20.25 21.0002 19.95 21.0002Z" fill="#345995"/>
</svg>
