<svg width="25" height="41" viewBox="0 0 25 41" fill="none" xmlns="http://www.w3.org/2000/svg">
<path d="M17.5144 33.965C17.5144 36.7352 15.2687 38.981 12.4984 38.981C9.72816 38.981 7.48242 36.7352 7.48242 33.965C7.48242 31.1947 9.72816 28.949 12.4984 28.949C15.2687 28.949 17.5144 31.1947 17.5144 33.965Z" fill="white"/>
<path fill-rule="evenodd" clip-rule="evenodd" d="M19.5144 33.965C19.5144 37.8398 16.3732 40.981 12.4984 40.981C8.62359 40.981 5.48242 37.8398 5.48242 33.965C5.48242 30.0901 8.62359 26.949 12.4984 26.949C16.3732 26.949 19.5144 30.0901 19.5144 33.965ZM12.4984 38.981C15.2687 38.981 17.5144 36.7352 17.5144 33.965C17.5144 31.1947 15.2687 28.949 12.4984 28.949C9.72816 28.949 7.48242 31.1947 7.48242 33.965C7.48242 36.7352 9.72816 38.981 12.4984 38.981Z" fill="black"/>
</svg>
